<?xml version="1.0" standalone="no"?>
<!DOCTYPE svg PUBLIC "-//W3C//DTD SVG 20010904//EN"
 "http://www.w3.org/TR/2001/REC-SVG-20010904/DTD/svg10.dtd">
<svg version="1.0" xmlns="http://www.w3.org/2000/svg"
 width="338.000000pt" height="336.000000pt" viewBox="0 0 338.000000 336.000000"
 preserveAspectRatio="xMidYMid meet">

<g transform="translate(0.000000,336.000000) scale(0.100000,-0.100000)"
fill="#000000" stroke="none">
<path d="M1550 3292 c-31 -16 -114 -65 -185 -109 -72 -45 -315 -191 -541 -327
-226 -135 -434 -263 -461 -285 -62 -48 -97 -108 -113 -186 -16 -86 -9 -1385 8
-1436 17 -49 82 -121 154 -170 47 -32 612 -374 1060 -641 136 -81 227 -97 332
-58 29 11 127 65 216 120 88 55 272 166 408 246 571 339 638 387 683 487 l24
52 0 720 0 720 -22 41 c-12 22 -40 58 -63 80 -36 36 -1060 662 -1208 739 -49
26 -69 30 -147 33 -82 2 -95 0 -145 -26z m282 -433 l38 -44 -2 -350 -3 -350
-29 -3 c-46 -6 -74 6 -93 38 -9 17 -20 30 -23 30 -4 0 -51 -118 -105 -262 -54
-145 -106 -272 -116 -282 -26 -28 -79 -24 -136 11 -27 15 -66 37 -88 48 -87
42 -94 71 -44 182 17 37 39 93 49 123 11 30 37 106 60 169 22 63 40 118 40
123 0 8 -49 -17 -205 -108 -49 -28 -106 -61 -126 -72 -71 -39 -302 -174 -365
-213 -35 -21 -69 -39 -74 -39 -18 0 -22 47 -18 232 3 157 6 188 21 212 20 30
29 36 272 172 94 53 211 120 260 149 50 29 117 68 150 86 33 18 107 62 165 97
159 98 173 103 260 99 74 -4 75 -5 112 -48z m543 -322 c44 -24 145 -79 224
-121 80 -42 150 -85 157 -94 11 -14 13 -140 11 -632 l-2 -615 -23 -3 c-13 -2
-33 3 -45 11 -23 15 -84 48 -202 112 -38 21 -110 61 -160 90 -75 43 -239 132
-356 192 -29 15 -40 39 -58 123 -6 30 -16 77 -22 105 -20 94 3 144 67 145 40
0 78 -16 189 -80 124 -72 305 -163 311 -157 5 5 -30 134 -129 477 -86 300
-106 383 -107 444 l0 59 33 -6 c17 -3 68 -25 112 -50z m-1310 -963 c34 -22 34
-83 0 -143 -14 -24 -24 -45 -23 -47 2 -1 95 -25 208 -53 185 -45 274 -66 580
-133 93 -20 120 -32 120 -49 0 -5 -95 -56 -210 -114 -116 -58 -208 -109 -205
-114 5 -9 170 -106 312 -184 100 -55 137 -88 129 -113 -3 -11 -57 -54 -119
-94 -105 -70 -115 -75 -167 -75 -53 0 -67 7 -245 109 -105 60 -210 120 -235
134 -25 14 -78 45 -118 69 -41 24 -75 43 -77 43 -2 0 -66 37 -143 83 -77 45
-163 94 -191 109 -79 43 -86 60 -86 210 l0 128 35 34 c19 19 91 67 159 106
196 114 229 125 276 94z"/>
</g>
</svg>
